<?xml version="1.0" encoding="utf-8"?>
<!-- Generator: Adobe Illustrator 24.1.3, SVG Export Plug-In . SVG Version: 6.00 Build 0)  -->
<svg version="1.1" id="Capa_1" xmlns="http://www.w3.org/2000/svg" xmlns:xlink="http://www.w3.org/1999/xlink" x="0px" y="0px"
	 viewBox="0 0 320 165" style="enable-background:new 0 0 320 165;" xml:space="preserve">
<style type="text/css">
	.st0{fill:#FEE098;}
	.st1{fill:#887E31;}
	.st2{fill:#D9BA55;}
	.st3{fill:#F0F3F5;stroke:#6B4723;stroke-miterlimit:10;}
	.st4{font-family:'MyriadPro-Regular';}
	.st5{font-size:34px;}
</style>
<g>
	<path class="st0" d="M88.5,114.5c-18.2,0-33-14.8-33-33s14.8-33,33-33h149c18.2,0,33,14.8,33,33s-14.8,33-33,33H88.5z"/>
	<path class="st1" d="M237.5,51c16.8,0,30.5,13.7,30.5,30.5S254.3,112,237.5,112h-149C71.7,112,58,98.3,58,81.5S71.7,51,88.5,51
		H237.5 M237.5,46h-149C68.9,46,53,61.9,53,81.5l0,0c0,19.6,15.9,35.5,35.5,35.5h149c19.6,0,35.5-15.9,35.5-35.5l0,0
		C273,61.9,257.1,46,237.5,46L237.5,46z"/>
</g>
<path class="st2" d="M66.1,79.9"/>
<g>
	<path class="st2" d="M66,81.5C66,91.2,73.8,99,83.5,99S101,91.2,101,81.5c0-10.4-9.5-16.9-16.3-17.5c-0.5,0-0.9,0-1.2,0
		c-6.9,0.1-13.7,4.9-16.3,11.4C66.8,76.4,66,78.6,66,81.5z"/>
	<path class="st2" d="M66.1,79.9"/>
	<g>
		<rect x="66" y="81" class="st0" width="35" height="1"/>
	</g>
	<g>
		<circle class="st0" cx="83.5" cy="81.5" r="7.5"/>
	</g>
	<circle class="st2" cx="83.5" cy="81.5" r="6.5"/>
</g>
<g>
	<path class="st2" d="M225,82.5c0,9.7,7.8,17.5,17.5,17.5S260,92.2,260,82.5c0-10.4-9.5-16.9-16.3-17.5c-0.5,0-0.9,0-1.2,0
		c-6.9,0.1-13.7,4.9-16.3,11.4C225.8,77.4,225,79.6,225,82.5z"/>
	<path class="st2" d="M225.1,80.9"/>
	<g>
		<rect x="225" y="82" class="st0" width="35" height="1"/>
	</g>
	<g>
		<circle class="st0" cx="242.5" cy="82.5" r="7.5"/>
	</g>
	<circle class="st2" cx="242.5" cy="82.5" r="6.5"/>
</g>
<text transform="matrix(1 0 0 1 102.0608 92.1212)" class="st3 st4 st5">Pokedex</text>
</svg>
