<svg width="800" height="600" xmlns="http://www.w3.org/2000/svg">
 <defs>
  <linearGradient spreadMethod="pad" y2="1" x2="0.99219" y1="0" x1="0" id="svg_19">
   <stop offset="0.26563" stop-color="#9700e2"/>
   <stop offset="0.61328" stop-opacity="0.99609" stop-color="#3f5a7f"/>
  </linearGradient>
  <linearGradient spreadMethod="pad" y2="1" x2="0.99219" y1="0" x1="0" id="svg_30">
   <stop stop-opacity="0.99609" offset="0.26563" stop-color="#b5059d"/>
   <stop offset="0.61328" stop-opacity="0.99219" stop-color="#2a84f9"/>
  </linearGradient>
  <linearGradient spreadMethod="pad" y2="1" x2="0.99219" y1="0" x1="0" id="svg_31">
   <stop stop-opacity="0.99609" offset="0.26563" stop-color="#15eae3"/>
   <stop offset="0.61328" stop-opacity="0.99219" stop-color="#23ff48"/>
  </linearGradient>
  <linearGradient spreadMethod="pad" y2="1" x2="0.99219" y1="0" x1="0" id="svg_32">
   <stop stop-opacity="0.99609" offset="0.26563" stop-color="#e0c00d"/>
   <stop offset="0.61719" stop-opacity="0.99219" stop-color="#ff0800"/>
  </linearGradient>
 </defs>
 <g>
  <title>Layer 1</title>
  <path transform="rotate(0.777082 406.417 254.332)" id="svg_23" d="m475.04544,137.51218c-18.68953,-19.33776 -38.84722,-34.82851 -55.38273,-36.94037c-0.90019,-0.13699 -1.83252,-0.21689 -2.81844,-0.23973l-108.82578,0c-1.73607,0 -3.45071,0.71918 -4.67239,2.05478c-1.21096,1.30136 -1.92896,3.12784 -1.92896,4.98855l0,293.94761c0,1.8493 0.67514,3.6187 1.92896,4.96572c1.25383,1.32419 2.90417,2.04336 4.67239,2.04336l196.79731,0c1.73607,0 3.39713,-0.70776 4.65095,-2.04336c1.25383,-1.33561 1.9504,-3.105 1.9504,-4.96572l0,-195.60358c-0.38579,-22.70532 -17.08206,-47.46541 -36.37171,-68.20726zm23.14758,256.74468l-183.59462,0l0,-279.88378l102.25659,0l0,0.02283c4.45805,-0.28539 8.30527,4.40636 11.2523,15.13687c2.67912,10.21682 3.35425,23.53864 3.34354,32.77373c0.02143,6.76936 -0.28935,11.31271 -0.28935,11.31271l-0.5251,7.44286l7.03,0.07991c0.03215,0 16.24618,0.20548 32.14942,4.05248c15.28169,3.51596 27.23056,10.52504 28.34507,18.45877c0.04287,0.70776 0.05359,1.41552 0.04287,2.07761l0,188.52601l-0.01072,0z" stroke="#ffffff" fill="url(#svg_31)"/>
  <path transform="rotate(16.1191 575.417 292.332)" id="svg_21" d="m644.04544,175.51218c-18.68953,-19.33776 -38.84722,-34.82851 -55.38273,-36.94037c-0.90019,-0.13699 -1.83252,-0.21689 -2.81844,-0.23973l-108.82578,0c-1.73607,0 -3.45071,0.71918 -4.67239,2.05478c-1.21096,1.30136 -1.92896,3.12784 -1.92896,4.98855l0,293.94761c0,1.8493 0.67514,3.6187 1.92896,4.96572c1.25383,1.32419 2.90417,2.04336 4.67239,2.04336l196.79731,0c1.73607,0 3.39713,-0.70776 4.65095,-2.04336c1.25383,-1.33561 1.9504,-3.105 1.9504,-4.96572l0,-195.60358c-0.38579,-22.70532 -17.08206,-47.46541 -36.37171,-68.20726zm23.14758,256.74468l-183.59462,0l0,-279.88378l102.25659,0l0,0.02283c4.45805,-0.28539 8.30527,4.40636 11.2523,15.13687c2.67912,10.21682 3.35425,23.53864 3.34354,32.77373c0.02143,6.76936 -0.28935,11.31271 -0.28935,11.31271l-0.5251,7.44286l7.03,0.07991c0.03215,0 16.24618,0.20548 32.14942,4.05248c15.28169,3.51596 27.23056,10.52504 28.34507,18.45877c0.04287,0.70776 0.05359,1.41552 0.04287,2.07761l0,188.52601l-0.01072,0z" stroke="#ffffff" fill="url(#svg_32)"/>
  <path transform="rotate(-24.78 270.417 274.332)" id="svg_20" d="m339.0454,157.51218c-18.68953,-19.33776 -38.84722,-34.82851 -55.38273,-36.94037c-0.90018,-0.13699 -1.83252,-0.21689 -2.81843,-0.23972l-108.82579,0c-1.73607,0 -3.4507,0.71917 -4.67238,2.05478c-1.21096,1.30136 -1.92897,3.12783 -1.92897,4.98855l0,293.94761c0,1.8493 0.67514,3.61869 1.92897,4.96572c1.25383,1.32419 2.90416,2.04336 4.67238,2.04336l196.79732,0c1.73607,0 3.39712,-0.70776 4.65095,-2.04336c1.25383,-1.33561 1.9504,-3.105 1.9504,-4.96572l0,-195.60358c-0.38579,-22.70531 -17.08206,-47.4654 -36.37171,-68.20726zm23.14758,256.74469l-183.59462,0l0,-279.88379l102.25659,0l0,0.02283c4.45805,-0.28539 8.30527,4.40636 11.2523,15.13687c2.67912,10.21682 3.35426,23.53864 3.34354,32.77373c0.02143,6.76936 -0.28934,11.3127 -0.28934,11.3127l-0.52511,7.44287l7.03001,0.07991c0.03215,0 16.24617,0.20548 32.14942,4.05248c15.28169,3.51596 27.23056,10.52504 28.34507,18.45877c0.04287,0.70776 0.05358,1.41551 0.04287,2.07761l0,188.52601l-0.01072,0z" fill="url(#svg_30)"/>
  <path id="svg_9" d="m655.77383,280.11051l-450.61198,0l225.30599,94.15102l225.30599,-94.15102zm-211.96799,134.25925c-4.14,1.7352 -8.73,2.60942 -13.32,2.60942s-9.18,-0.87422 -13.338,-2.60942l-229.66199,-95.9392l0,195.67994l485.99997,0l0,-195.67994l-229.67999,95.9392z" fill="url(#svg_19)"/>
  <path stroke="#ffffff" id="svg_26" d="m299.00093,320.33418l139.99969,57.82222l-26.6667,33.51083l-124.00018,-51.90894l10.66719,-39.42411z" opacity="NaN" fill="#ffffff"/>
  <path id="svg_27" d="m384.00104,396.66761" opacity="NaN" stroke="#ffffff" fill="#ffffff"/>
  <path transform="translate(1200.0002047999992,900.0001535999994)" id="svg_28" d="m412.6665,409.33319l23.33342,5.00007l6,-0.33333l82.99999,-34.99999l-11,-39.99999l-84.66665,35.66666l-16.66676,34.66659z" opacity="NaN" stroke="#ffffff" fill="#ffffff"/>
  <path transform="rotate(0.170381 468.333 376.5)" id="svg_29" d="m441.99983,414.33319l82.33342,-34.18267l-8.33333,-41.48391l-94.66665,40.15643l-9,29.53655l18.66666,5.30994l10.9999,0.66367z" opacity="NaN" fill="#ffffff"/>
  <path transform="rotate(0.293594 509.107 229.806)" stroke="#ffffff" id="svg_33" d="m495.83137,279.26553l34.77317,0.0351l-17.52872,-98.98841l-25.46625,88.98958l8.22179,9.96372z" opacity="NaN" fill="#ffffff"/>
  <path stroke="#ffffff" id="svg_35" d="m301.74615,185.24083c0,0 8.74995,-0.99478 8.50215,-1.24184c0.2478,0.24706 6.49776,0.24706 6.24997,0c0.2478,0.24706 2.99778,11.43836 2.74998,11.19131c0.2478,0.24705 -0.7522,84.3062 -0.99999,84.05914c0.2478,0.24705 -24.25207,0.24705 -24.49987,0c0.2478,0.24705 7.99776,-94.00861 7.99776,-94.00861z" opacity="NaN" fill="#ffffff"/>
 </g>
</svg>